<?xml version="1.0" encoding="UTF-8"?>
<svg id="Ebene_1" data-name="Ebene 1" xmlns="http://www.w3.org/2000/svg" width="100" height="100" viewBox="0 0 100 100">
  <defs>
    <style>
      .cls-1 {
        fill: #1d1d1b;
      }

      .cls-2 {
        fill: #fff;
      }

      .cls-3 {
        fill: none;
        stroke: #fff;
        stroke-miterlimit: 10;
        stroke-width: 2px;
      }
    </style>
  </defs>
  <circle cx="50.14" cy="50" r="41.42"/>
  <g>
    <path class="cls-1" d="M69.35,54.2h2.26v2.26s2.26,0,2.26,0v2.26s2.26,0,2.26,0v2.26s2.26,0,2.26,0v2.26s2.26,0,2.26,0v2.26s2.26,0,2.26,0v2.26s2.26,0,2.26,0v2.26s2.26,0,2.26,0v2.26s2.26,0,2.26,0v2.26s2.26,0,2.26,0v2.26s2.26,0,2.26,0v2.26s2.26,0,2.26,0v4.52h-9.04s0,2.26,0,2.26h2.26v4.52s2.26,0,2.26,0v4.52h-2.26s0,2.26,0,2.26h-4.52v-2.26s-2.26,0-2.26,0v-4.52s-2.26,0-2.26,0v-4.52s-2.26,0-2.26,0v2.26h-2.26s0,2.26,0,2.26h-2.26s0,2.26,0,2.26h-4.52"/>
    <path class="cls-2" d="M71.61,58.72h2.26v2.26s2.26,0,2.26,0v2.26s2.26,0,2.26,0v2.26s2.26,0,2.26,0v2.26s2.26,0,2.26,0v2.26s2.26,0,2.26,0v2.26s2.26,0,2.26,0v2.26s2.26,0,2.26,0v2.26s2.26,0,2.26,0v2.26s2.26,0,2.26,0v2.26h-9.04s0,4.52,0,4.52h2.26v4.52s2.26,0,2.26,0v4.52h-4.52v-4.52s-2.26,0-2.26,0v-4.52s-2.26,0-2.26,0v-2.26s-2.26,0-2.26,0v2.26h-2.26s0,2.26,0,2.26h-2.26s0,2.26,0,2.26h-2.26"/>
  </g>
  <path class="cls-3" d="M42.2,8.58s-7.94,11.87-7.94,41.42,7.94,41.42,7.94,41.42"/>
  <path class="cls-3" d="M58.08,8.58s7.94,11.87,7.94,41.42-7.94,41.42-7.94,41.42"/>
  <line class="cls-3" x1="91.56" y1="50" x2="8.72" y2="50"/>
  <path class="cls-3" d="M79.36,21.85c-6.69,5.3-17.29,8.72-29.22,8.72s-23.23-3.65-29.87-9.25"/>
  <path class="cls-3" d="M79.36,78.15c-6.69-5.3-17.29-8.72-29.22-8.72s-23.23,3.65-29.87,9.25"/>
</svg>