<?xml version="1.0" encoding="UTF-8"?>
<svg id="Ebene_2" data-name="Ebene 2" xmlns="http://www.w3.org/2000/svg" width="512" height="512" viewBox="0 0 512 512">
  <defs>
    <style>
      .cls-1 {
        fill: none;
        stroke: #000;
        stroke-linejoin: bevel;
        stroke-width: 30px;
      }
    </style>
  </defs>
  <path class="cls-1" d="M393.73,139.87c26.47,31.36,42.42,71.88,42.42,116.13h0c0,99.49-80.66,180.15-180.15,180.15h0c-99.49,0-180.15-80.66-180.15-180.15h0c0-99.49,80.66-180.15,180.15-180.15h0c55.24,0,104.68,24.87,137.73,64.02"/>
  <line class="cls-1" x1="75.88" y1="256" x2="436.12" y2="256"/>
  <path class="cls-1" d="M433.42,208.61c-41.77-21.04-105.73-34.5-177.42-34.5-71.69,0-135.65,13.46-177.43,34.5"/>
  <path class="cls-1" d="M433.42,303.39c-41.77,21.04-105.73,34.5-177.42,34.5-71.69,0-135.65-13.46-177.43-34.5"/>
  <path class="cls-1" d="M295.88,85.13c16.72,47.52,26.64,106.71,26.64,170.87s-9.92,123.35-26.65,170.87"/>
  <path class="cls-1" d="M216.13,85.13c-16.72,47.52-26.64,106.71-26.64,170.87s9.92,123.35,26.65,170.87"/>
</svg>