<?xml version="1.0" encoding="UTF-8"?>
<svg id="Ebene_1" data-name="Ebene 1" xmlns="http://www.w3.org/2000/svg" width="1920" height="1920" viewBox="0 0 1920 1920">
  <rect x=".14" y="5.16" width="109.22" height="186.06"/>
  <rect x="1714.89" y="794.17" width="90.51" height="319.72" transform="translate(2714.17 -806.12) rotate(90)"/>
  <rect x="1405.49" y="854.3" width="90.51" height="299.09" transform="translate(2454.58 -446.9) rotate(90)"/>
  <rect x="1394.64" y="671.65" width="90.51" height="299.09" transform="translate(2879.78 1642.4) rotate(180)"/>
  <rect x="44.63" y="190.73" width="110.01" height="205.82"/>
  <rect x="763.05" y="5.16" width="109.22" height="186.06"/>
  <rect x="807.54" y="190.73" width="110.01" height="205.82"/>
  <rect x="292.87" y="15.35" width="130.72" height="380.74"/>
  <rect x="367.36" y="-99.63" width="130.72" height="360.67" transform="translate(513.42 -352.01) rotate(90)"/>
  <rect x="1555.99" y="174.53" width="108.33" height="617.92" transform="translate(2093.65 -1126.66) rotate(90)"/>
  <rect x="1557.71" y="444.59" width="108.33" height="662.39" transform="translate(3134.42 -163.29) rotate(122.63)"/>
  <rect x="1810.79" y="532.63" width="108.33" height="251.31" transform="translate(3729.9 1316.58) rotate(180)"/>
  <rect x="987.24" y="-109.82" width="130.72" height="360.67" transform="translate(1123.12 -982.08) rotate(90)"/>
  <rect x="985.36" y="75.46" width="130.72" height="360.67" transform="translate(1306.51 -794.92) rotate(90)"/>
  <rect x="521.84" y="144.66" width="130.72" height="251.43"/>
  <rect x="1609.69" y="1079.41" width="108.33" height="510.52" transform="translate(329.18 2998.53) rotate(-90)"/>
  <rect x="1301.2" y="1090.75" width="108.33" height="298.09"/>
  <rect x="1609.69" y="889.66" width="108.33" height="510.52" transform="translate(518.94 2808.77) rotate(-90)"/>
  <rect x="1500.98" y="1253.95" width="108.33" height="507.91" transform="translate(3063.05 -47.24) rotate(90)"/>
  <rect x="1810.79" y="1502.02" width="108.33" height="417.98" transform="translate(3729.9 3422.02) rotate(180)"/>
  <rect x="1502.41" y="1442.29" width="108.33" height="510.75" transform="translate(3254.23 141.09) rotate(90)"/>
  <rect x="1502.41" y="1610.46" width="108.33" height="510.75" transform="translate(3422.4 309.26) rotate(90)"/>
  <path d="M1737.38,377.04h-253.56c-100.7,0-182.62-81.92-182.62-182.62v-7.97c0-100.7,81.92-182.62,182.62-182.62h253.56c100.7,0,182.62,81.92,182.62,182.62v7.97c0,100.7-81.92,182.62-182.62,182.62ZM1483.82,88.29c-54.12,0-98.16,44.03-98.16,98.16v7.97c0,54.12,44.03,98.16,98.16,98.16h253.56c54.12,0,98.16-44.03,98.16-98.16v-7.97c0-54.12-44.03-98.16-98.16-98.16h-253.56Z"/>
</svg>