<?xml version="1.0" encoding="UTF-8"?>
<svg id="Ebene_1" data-name="Ebene 1" xmlns="http://www.w3.org/2000/svg" width="1920" height="3035.53" viewBox="0 0 1920 3035.53">
  <g>
    <path d="M118.76,18.58v611.05H3.64V18.58h115.12Z"/>
    <path d="M349.8,18.58l303.75,445.44s-1.77-71.73-1.77-144.35V18.58h112.47v611.05h-116.01L338.29,178.87s1.77,77.93,1.77,150.55v300.21h-112.47V18.58h122.21Z"/>
    <path d="M1235.36,18.58v96.53h-245.3v171.8h231.13v94.76h-231.13v247.96h-115.12V18.58h360.43Z"/>
    <path d="M1269.72,324.99c0-196.6,143.46-315.26,319.69-315.26s319.69,118.67,319.69,315.26-142.58,315.26-319.69,315.26-319.69-118.67-319.69-315.26ZM1790.44,324.1c0-132.84-87.67-214.31-201.03-214.31s-201.03,81.47-201.03,214.31,88.56,215.19,201.03,215.19,201.03-82.36,201.03-215.19Z"/>
  </g>
  <g>
    <path d="M1914.67,887.33c0,64.65-14.17,116.01-43.39,154.09-29.22,38.08-76.16,65.53-134.61,65.53-53.83,0-91.25-15.02-118.05-39.62-25.68-23.57-41.61-55.93-52.88-92.33l-262.13,164.72v-134.61l247.96-144.35v-54.91h-247.96v-115.12h611.05v196.6h0ZM1661.4,952.86c16.83,23.03,37.19,35.42,71.73,35.42s55.79-12.4,71.73-35.42c16.83-22.14,19.48-50.48,19.48-87.67v-60.22h-182.43v60.22c0,37.19,2.66,65.53,19.48,87.67Z"/>
    <path d="M1915.55,1505.71l-611.93,239.99v-125.75l140.81-53.13v-239.99l-140.81-53.13v-119.55l611.93,239.99v111.58ZM1783.6,1447.26l-247.08-92.1v183.31l247.08-91.21Z"/>
    <path d="M1440,1901.11c-28.34,22.14-46.05,56.68-46.05,102.73s17.71,80.59,46.05,102.73c30.99,23.91,72.62,26.57,119.55,26.57h355.12v115.12h-358.66c-81.47,0-140.81-11.51-189.51-54.02-46.94-41.62-73.5-105.38-73.5-190.4s26.57-148.78,73.5-190.4c48.71-42.51,108.04-54.02,189.51-54.02h358.66v116.01h-355.12c-46.94,0-88.56,1.77-119.55,25.68Z"/>
    <path d="M1914.66,2528.62l-438.36,147.89v1.77l438.36,149.66v146.12l-611.05,52.25v-113.35l461.38-35.42v-1.77l-464.04-162.95v-80.59l464.04-159.4v-2.66l-461.38-32.77v-110.7l611.05,50.48v151.43Z"/>
  </g>
</svg>