<?xml version="1.0" encoding="utf-8"?>
<!-- Generator: Adobe Illustrator 22.0.1, SVG Export Plug-In . SVG Version: 6.00 Build 0)  -->
<svg version="1.1" id="Ebene_1" xmlns="http://www.w3.org/2000/svg" xmlns:xlink="http://www.w3.org/1999/xlink" x="0px" y="0px"
	 viewBox="0 0 656.1 102.7" style="enable-background:new 0 0 656.1 102.7;" xml:space="preserve">
<style type="text/css">
	.st0{fill:#1C70B8;}
</style>
<g>
	<g>
		<path class="st0" d="M51.5,78.7H1.4V2.9h49.1V17H19.1v15.5h29.7v14.2H19.1v17.6h32.4V78.7z"/>
		<path class="st0" d="M95.2,75.1c-4,3.1-9.3,4.7-16.6,4.7c-8.1,0-16.7-2.5-22.9-8.4L62.3,61c4.4,3.7,11.6,6.6,16,6.6
			s7.5-1.1,7.5-4.6s-7.9-5.3-9.9-5.9c-2.1-0.5-5.2-1.4-7.7-2.5S59,50.1,59,40.4c0-10.5,9.2-17,20.5-17s17.7,4.2,20.8,6.7l-5.7,10.3
			c-3.1-2.4-9.2-5.3-13.6-5.3c-4.2,0-6.5,1.1-6.5,4s4.2,4.2,7.9,5.3c3.7,1.1,5.4,1.6,7.7,2.5c2.4,0.9,5.2,2.3,7,4.1s4.4,5.3,4.4,11
			C101.6,67.6,99.2,72,95.2,75.1z"/>
		<path class="st0" d="M143.7,79.9c-8,0-13.7-3-17.1-8v26.7H109V24.5h16.7l-0.1,6.9h0.2c4-4.7,9.8-7.9,18-7.9
			c15.6,0,25.5,12.2,25.5,28.1C169.3,67.6,159.4,79.9,143.7,79.9z M138.6,37.4c-7.5,0-12.6,5.7-12.6,14.1s5.2,14.1,12.6,14.1
			c7.6,0,12.7-5.7,12.7-14.1C151.4,43.1,146.2,37.4,138.6,37.4z"/>
		<path class="st0" d="M226.3,78.7h-16.8l-0.3-5.7c-2.3,2.3-6.7,6.9-15.5,6.9c-9.6,0-19.7-5.2-19.7-17.2c0-12.1,11.1-16.2,21.1-16.6
			l13.6-0.5v-1.2c0-5.7-4.1-8.7-11.1-8.7c-6.9,0-13.8,3.1-16.6,4.8l-4.6-11.4c4.6-2.3,13.1-5.5,23.2-5.5c10.1,0,15.9,2.3,20.2,6.3
			c4.2,4,6.5,9.2,6.5,18.3L226.3,78.7L226.3,78.7z M208.8,54.8l-8.7,0.5c-5.4,0.2-8.6,2.5-8.6,6.6c0,4.2,3.4,6.7,8.2,6.7
			c4.7,0,7.9-3.1,9-4.9L208.8,54.8L208.8,54.8z"/>
		<path class="st0" d="M282.1,73.4c-0.5,0.4-6.3,6.5-20.7,6.5c-14.8,0-28.6-10.1-28.6-28.1c0-18.1,14-28.2,28.8-28.2
			c13.8,0,20.1,5.7,20.1,5.7l-3.8,13.3c-1.5-1.2-6.4-4.8-14-4.8c-7.5,0-13.4,5.2-13.4,13.7c0,8.6,5.4,14,13.6,14s13.7-5.3,13.7-5.3
			L282.1,73.4z"/>
		<path class="st0" d="M343.1,55.8h-38.6c0.8,7.8,6.7,11.3,13.8,11.3c7,0,13.2-3.1,16.3-5.2l6.9,9.1c-1.8,1.3-8.9,8.8-25.7,8.8
			c-16.7,0-28.9-10.3-28.9-28.2s13.2-28.1,29.2-28.1s27.2,10.7,27.2,26.5C343.3,52.6,343.1,55.8,343.1,55.8z M326.9,45.8
			c-0.1-4.9-3.7-10.9-11.1-10.9c-7.3,0-11,5.7-11.2,10.9C304.6,45.8,326.9,45.8,326.9,45.8z"/>
		<path class="st0" d="M395.9,73.7c-5.4,4.3-12.4,6.3-20.5,6.3c-11,0-20.8-5.7-26.9-11.4l8.8-13c5.5,5.7,14,9.6,19.8,9.6
			c5.7,0,10.1-2.7,10.1-7.8c0-5.2-5.6-7.1-8.9-8.4c-3.3-1.2-9-3.2-11.5-4.3c-1.9-0.9-5.7-2.3-9-5.5c-3.3-3.1-5.9-7.5-5.9-14.6
			c0-7.3,3.5-13,7.9-16.6c4.3-3.6,11.2-6,20-6s18.9,4.2,24.1,9.3l-7.6,12.4c-4.4-4.4-11.2-7.7-16.9-7.7s-9.9,2.2-9.9,6.8
			s4.3,6.4,7.7,7.7c3.3,1.3,8.9,3.3,11.3,4.3c2.1,0.8,7.1,2.7,10.5,6.2c3.2,3.2,5.9,7.8,5.9,14.6C404.8,62.8,401.4,69.4,395.9,73.7z
			"/>
		<path class="st0" d="M464,78.7h-16.9l-0.1-6.2c-2.3,3.3-8,7.4-15.8,7.4s-12.7-2.7-15.5-6.4c-2.6-3.7-4-8.5-4-16.3V24.5h17.6v30.3
			c0,6.3,1.8,10.5,8,10.5s9.1-4.9,9.1-12.1V24.4H464V78.7L464,78.7z"/>
		<path class="st0" d="M483.6,18.2c-5.9,0-10-3.6-10-9.1c0-5.4,4.1-9.1,10-9.1s10,3.7,10,9.1C493.6,14.6,489.5,18.2,483.6,18.2z
			 M492.4,78.7h-17.6V24.5h17.6V78.7z"/>
		<path class="st0" d="M539.2,75.1c-4,3.1-9.3,4.7-16.6,4.7c-8.1,0-16.7-2.5-22.9-8.4l6.6-10.4c4.4,3.7,11.6,6.6,16,6.6
			s7.5-1.1,7.5-4.6s-7.9-5.3-9.9-5.9c-2.1-0.5-5.2-1.4-7.7-2.5s-9.2-4.5-9.2-14.2c0-10.5,9.2-17,20.5-17s17.7,4.2,20.8,6.7
			l-5.7,10.3c-3.1-2.4-9.2-5.3-13.6-5.3c-4.2,0-6.5,1.1-6.5,4s4.2,4.2,7.9,5.3s5.4,1.6,7.7,2.5c2.4,0.9,5.2,2.3,7,4.1
			s4.4,5.3,4.4,11C545.5,67.6,543.1,72,539.2,75.1z"/>
		<path class="st0" d="M586.5,75.1c-4,3.1-9.3,4.7-16.6,4.7c-8.1,0-16.7-2.5-22.9-8.4l6.6-10.4c4.4,3.7,11.6,6.6,16,6.6
			s7.5-1.1,7.5-4.6s-7.9-5.3-9.9-5.9c-2.1-0.5-5.2-1.4-7.7-2.5s-9.2-4.5-9.2-14.2c0-10.5,9.2-17,20.5-17s17.7,4.2,20.8,6.7
			l-5.7,10.3c-3.1-2.4-9.2-5.3-13.6-5.3c-4.2,0-6.5,1.1-6.5,4s4.2,4.2,7.9,5.3s5.4,1.6,7.7,2.5c2.4,0.9,5.2,2.3,7,4.1
			s4.4,5.3,4.4,11C592.9,67.6,590.5,72,586.5,75.1z"/>
		<path class="st0" d="M654.1,55.8h-38.6c0.8,7.8,6.7,11.3,13.8,11.3c7,0,13.2-3.1,16.3-5.2l6.9,9.1c-1.8,1.3-8.9,8.8-25.7,8.8
			c-16.7,0-28.9-10.3-28.9-28.2s13.2-28.1,29.2-28.1s27.1,10.7,27.1,26.5C654.3,52.6,654.1,55.8,654.1,55.8z M637.9,45.8
			c-0.1-4.9-3.7-10.9-11.1-10.9c-7.3,0-11,5.7-11.2,10.9C615.6,45.8,637.9,45.8,637.9,45.8z"/>
	</g>
</g>
</svg>
