<?xml version="1.0" encoding="utf-8"?>
<!-- Generator: Adobe Illustrator 22.0.1, SVG Export Plug-In . SVG Version: 6.00 Build 0)  -->
<svg version="1.1" id="Ebene_1" xmlns="http://www.w3.org/2000/svg" xmlns:xlink="http://www.w3.org/1999/xlink" x="0px" y="0px"
	 viewBox="0 0 656.1 284.7" style="enable-background:new 0 0 656.1 284.7;" xml:space="preserve">
<style type="text/css">
	.st0{fill:#1C70B8;}
</style>
<g>
	<g>
		<g>
			<path class="st0" d="M51.5,78.7H1.4V2.9h49.1V17H19.1v15.5h29.7v14.2H19.1v17.6h32.4V78.7z"/>
			<path class="st0" d="M95.2,75.1c-4,3.1-9.3,4.7-16.6,4.7c-8.1,0-16.7-2.5-22.9-8.4L62.3,61c4.4,3.7,11.6,6.6,16,6.6
				s7.5-1.1,7.5-4.6s-7.9-5.3-9.9-5.9c-2.1-0.5-5.2-1.4-7.7-2.5S59,50.1,59,40.4c0-10.5,9.2-17,20.5-17s17.7,4.2,20.8,6.7l-5.7,10.3
				c-3.1-2.4-9.2-5.3-13.6-5.3c-4.2,0-6.5,1.1-6.5,4s4.2,4.2,7.9,5.3c3.7,1.1,5.4,1.6,7.7,2.5c2.4,0.9,5.2,2.3,7,4.1s4.4,5.3,4.4,11
				C101.6,67.6,99.2,72,95.2,75.1z"/>
			<path class="st0" d="M143.7,79.9c-8,0-13.7-3-17.1-8v26.7H109V24.5h16.7l-0.1,6.9h0.2c4-4.7,9.8-7.9,18-7.9
				c15.6,0,25.5,12.2,25.5,28.1C169.3,67.6,159.4,79.9,143.7,79.9z M138.6,37.4c-7.5,0-12.6,5.7-12.6,14.1c0,8.4,5.2,14.1,12.6,14.1
				c7.6,0,12.7-5.7,12.7-14.1C151.4,43.1,146.2,37.4,138.6,37.4z"/>
			<path class="st0" d="M226.3,78.7h-16.8l-0.3-5.7c-2.3,2.3-6.7,6.9-15.5,6.9c-9.6,0-19.7-5.2-19.7-17.2
				c0-12.1,11.1-16.2,21.1-16.6l13.6-0.5v-1.2c0-5.7-4.1-8.7-11.1-8.7c-6.9,0-13.8,3.1-16.6,4.8l-4.6-11.4
				c4.6-2.3,13.1-5.5,23.2-5.5c10.1,0,15.9,2.3,20.2,6.3c4.2,4,6.5,9.2,6.5,18.3V78.7z M208.8,54.8l-8.7,0.5
				c-5.4,0.2-8.6,2.5-8.6,6.6c0,4.2,3.4,6.7,8.2,6.7c4.7,0,7.9-3.1,9-4.9L208.8,54.8L208.8,54.8z"/>
			<path class="st0" d="M282.1,73.4c-0.5,0.4-6.3,6.5-20.7,6.5c-14.8,0-28.6-10.1-28.6-28.1c0-18.1,14-28.2,28.8-28.2
				c13.8,0,20.1,5.7,20.1,5.7l-3.8,13.3c-1.5-1.2-6.4-4.8-14-4.8c-7.5,0-13.4,5.2-13.4,13.7c0,8.6,5.4,14,13.6,14
				c8.2,0,13.7-5.3,13.7-5.3L282.1,73.4z"/>
			<path class="st0" d="M343.1,55.8h-38.6c0.8,7.8,6.7,11.3,13.8,11.3c7,0,13.2-3.1,16.3-5.2l6.9,9.1c-1.8,1.3-8.9,8.8-25.7,8.8
				c-16.7,0-28.9-10.3-28.9-28.2s13.2-28.1,29.2-28.1s27.2,10.7,27.2,26.5C343.3,52.6,343.1,55.8,343.1,55.8z M326.9,45.8
				c-0.1-4.9-3.7-10.9-11.1-10.9c-7.3,0-11,5.7-11.2,10.9H326.9z"/>
			<path class="st0" d="M395.9,73.7c-5.4,4.3-12.4,6.3-20.5,6.3c-11,0-20.8-5.7-26.9-11.4l8.8-13c5.5,5.7,14,9.6,19.8,9.6
				c5.7,0,10.1-2.7,10.1-7.8c0-5.2-5.6-7.1-8.9-8.4c-3.3-1.2-9-3.2-11.5-4.3c-1.9-0.9-5.7-2.3-9-5.5c-3.3-3.1-5.9-7.5-5.9-14.6
				c0-7.3,3.5-13,7.9-16.6c4.3-3.6,11.2-6,20-6s18.9,4.2,24.1,9.3l-7.6,12.4c-4.4-4.4-11.2-7.7-16.9-7.7s-9.9,2.2-9.9,6.8
				s4.3,6.4,7.7,7.7c3.3,1.3,8.9,3.3,11.3,4.3c2.1,0.8,7.1,2.7,10.5,6.2c3.2,3.2,5.9,7.8,5.9,14.6C404.8,62.8,401.4,69.4,395.9,73.7
				z"/>
			<path class="st0" d="M464,78.7h-16.9l-0.1-6.2c-2.3,3.3-8,7.4-15.8,7.4s-12.7-2.7-15.5-6.4c-2.6-3.7-4-8.5-4-16.3V24.5h17.6v30.3
				c0,6.3,1.8,10.5,8,10.5s9.1-4.9,9.1-12.1V24.4H464L464,78.7L464,78.7z"/>
			<path class="st0" d="M483.6,18.2c-5.9,0-10-3.6-10-9.1c0-5.4,4.1-9.1,10-9.1s10,3.7,10,9.1C493.6,14.6,489.5,18.2,483.6,18.2z
				 M492.4,78.7h-17.6V24.5h17.6V78.7z"/>
			<path class="st0" d="M539.2,75.1c-4,3.1-9.3,4.7-16.6,4.7c-8.1,0-16.7-2.5-22.9-8.4l6.6-10.4c4.4,3.7,11.6,6.6,16,6.6
				s7.5-1.1,7.5-4.6s-7.9-5.3-9.9-5.9c-2.1-0.5-5.2-1.4-7.7-2.5c-2.5-1.1-9.2-4.5-9.2-14.2c0-10.5,9.2-17,20.5-17s17.7,4.2,20.8,6.7
				l-5.7,10.3c-3.1-2.4-9.2-5.3-13.6-5.3c-4.2,0-6.5,1.1-6.5,4s4.2,4.2,7.9,5.3s5.4,1.6,7.7,2.5c2.4,0.9,5.2,2.3,7,4.1
				s4.4,5.3,4.4,11C545.5,67.6,543.1,72,539.2,75.1z"/>
			<path class="st0" d="M586.5,75.1c-4,3.1-9.3,4.7-16.6,4.7c-8.1,0-16.7-2.5-22.9-8.4l6.6-10.4c4.4,3.7,11.6,6.6,16,6.6
				s7.5-1.1,7.5-4.6s-7.9-5.3-9.9-5.9c-2.1-0.5-5.2-1.4-7.7-2.5s-9.2-4.5-9.2-14.2c0-10.5,9.2-17,20.5-17s17.7,4.2,20.8,6.7
				l-5.7,10.3c-3.1-2.4-9.2-5.3-13.6-5.3c-4.2,0-6.5,1.1-6.5,4s4.2,4.2,7.9,5.3s5.4,1.6,7.7,2.5c2.4,0.9,5.2,2.3,7,4.1
				s4.4,5.3,4.4,11C592.9,67.6,590.5,72,586.5,75.1z"/>
			<path class="st0" d="M654.1,55.8h-38.6c0.8,7.8,6.7,11.3,13.8,11.3c7,0,13.2-3.1,16.3-5.2l6.9,9.1c-1.8,1.3-8.9,8.8-25.7,8.8
				c-16.7,0-28.9-10.3-28.9-28.2s13.2-28.1,29.2-28.1s27.1,10.7,27.1,26.5C654.3,52.6,654.1,55.8,654.1,55.8z M637.9,45.8
				c-0.1-4.9-3.7-10.9-11.1-10.9c-7.3,0-11,5.7-11.2,10.9H637.9z"/>
		</g>
	</g>
	<g>
		<path class="st0" d="M21.2,125l-8.4,23H9.9l-8.4-23H5l6.4,18.3l6.4-18.3H21.2z"/>
		<path class="st0" d="M35.7,140.8H23.5c0.2,3.1,2.2,5,5.1,5c3,0,4.9-1.6,5.2-1.8l1.3,1.8c-0.2,0.2-2.2,2.5-6.9,2.5
			c-4.7,0-7.9-3.3-7.9-8.3s3.6-8.2,8-8.2s7.5,3.1,7.5,7.5C35.8,140,35.7,140.8,35.7,140.8z M32.8,138.6c0-1.8-1.4-4.5-4.6-4.5
			s-4.6,2.6-4.7,4.5H32.8z"/>
		<path class="st0" d="M47.6,135.1h-0.1c-0.3-0.1-0.9-0.3-1.7-0.3c-1.4,0-2.3,0.9-2.6,1.3c-0.3,0.4-1,1.7-1,4v7.9H39v-15.8h3.2v2.4
			h0.1c0.8-1.8,2.2-2.7,3.9-2.7c1.1,0,1.7,0.3,1.7,0.3L47.6,135.1z"/>
		<path class="st0" d="M59.1,148.3c-2.3,0-4.3-0.9-5.6-2.9h-0.1v2.5h-3.1V125h3.2v9.6h0.1c1.2-1.7,3-2.8,5.5-2.8
			c4.6,0,7.6,3.5,7.6,8.2C66.8,144.7,63.8,148.3,59.1,148.3z M58.5,134.4c-3.2,0-5.1,2.4-5.1,5.6s1.9,5.6,5.1,5.6s5-2.4,5-5.6
			S61.7,134.4,58.5,134.4z"/>
		<path class="st0" d="M82.4,147.9h-3.1v-2c-0.6,0.7-2.1,2.4-5,2.4s-5.5-1.8-5.5-4.9s2.5-4.7,6.2-4.8l4.2-0.2v-0.6
			c0-2.4-1.6-3.6-3.9-3.6s-4.2,1-4.8,1.4l-1-2.1c1.2-0.7,3.3-1.6,5.9-1.6s4.2,0.7,5.2,1.8c1.1,1.1,1.7,2.4,1.7,5.1L82.4,147.9
			L82.4,147.9z M79.2,140.3l-3.7,0.2c-2.6,0.1-3.6,1.2-3.6,2.7s1.2,2.7,3.3,2.7c2.1,0,3.4-1.4,4-2.3L79.2,140.3L79.2,140.3z"/>
		<path class="st0" d="M99.8,147.9h-3.2v-8.8c0-2.7-0.5-4.7-3.3-4.7c-3,0-4.1,2.5-4.1,5.5v7.9H86V132h3.2v2.5h0.1
			c0.8-1.6,2.5-2.8,4.8-2.8c4.5,0,5.7,3,5.7,6.7V147.9z"/>
		<path class="st0" d="M119,147.9h-3.1v-2.5h-0.1c-1.3,1.9-3.3,2.9-5.6,2.9c-4.7,0-7.7-3.6-7.7-8.3c0-4.7,3-8.2,7.6-8.2
			c2.6,0,4.4,1.1,5.5,2.8h0.1V125h3.2v22.9H119z M111,134.4c-3.2,0-5,2.4-5,5.6s1.9,5.6,5,5.6c3.2,0,5-2.4,5-5.6
			S114.1,134.4,111,134.4z"/>
		<path class="st0" d="M138.2,127.3c0,0-0.9-0.3-1.8-0.3c-2.1,0-2.4,1.6-2.4,3.4v1.8h3.8v2.6H134V148h-3.2v-13.2h-2.3v-2.6h2.3v-1.6
			c0-2.1,0.4-3.4,1.1-4.2c0.7-0.9,2-1.7,3.8-1.7s2.7,0.4,2.7,0.4L138.2,127.3z"/>
		<path class="st0" d="M153.5,147.9h-3.1v-2.3c-0.9,1.5-2.7,2.6-4.9,2.6c-2.3,0-3.6-0.8-4.4-1.8c-0.8-1.1-1.2-2.6-1.2-4.9V132h3.2
			v9.3c0,2.2,0.5,4.2,3.3,4.2s3.9-2.4,3.9-5.1v-8.5h3.2V147.9z M144.2,129.2c-1,0-1.8-0.7-1.8-1.8c0-1.1,0.8-1.8,1.8-1.8
			s1.7,0.7,1.7,1.8C146,128.5,145.2,129.2,144.2,129.2z M149.3,129.2c-0.9,0-1.7-0.7-1.7-1.8c0-1.1,0.8-1.8,1.7-1.8
			c1,0,1.8,0.7,1.8,1.8S150.3,129.2,149.3,129.2z"/>
		<path class="st0" d="M165.9,135.1h-0.1c-0.3-0.1-0.9-0.3-1.7-0.3c-1.4,0-2.3,0.9-2.6,1.3c-0.3,0.4-1,1.7-1,4v7.9h-3.2v-15.8h3.2
			v2.4h0.1c0.8-1.8,2.2-2.7,3.9-2.7c1.1,0,1.7,0.3,1.7,0.3L165.9,135.1z"/>
		<path class="st0" d="M190.9,147.9H187l-6-9.9h-2.5v9.9h-3.2V125h6.5c2.3,0,4.2,0.5,5.5,1.6c1.4,1.1,2.2,2.8,2.2,4.9
			c0,4-2.8,5.8-5.2,6.3L190.9,147.9z M184.8,128.4c-1-0.8-2.3-0.8-3.9-0.8h-2.4v7.8h2.4c1.6,0,2.8-0.1,3.9-0.8
			c1-0.8,1.5-1.7,1.5-3.1C186.2,130.1,185.8,129.2,184.8,128.4z"/>
		<path class="st0" d="M205.5,147.9h-3.1v-2c-0.6,0.7-2.1,2.4-5,2.4s-5.5-1.8-5.5-4.9s2.5-4.7,6.2-4.8l4.2-0.2v-0.6
			c0-2.4-1.6-3.6-3.9-3.6c-2.3,0-4.2,1-4.8,1.4l-1-2.1c1.2-0.7,3.3-1.6,5.9-1.6s4.2,0.7,5.2,1.8c1.1,1.1,1.7,2.4,1.7,5.1
			L205.5,147.9L205.5,147.9z M202.4,140.3l-3.7,0.2c-2.6,0.1-3.6,1.2-3.6,2.7s1.2,2.7,3.3,2.7s3.4-1.4,4-2.3V140.3z"/>
		<path class="st0" d="M222.4,147.9h-3.1v-2.3c-0.9,1.5-2.7,2.6-4.9,2.6c-2.3,0-3.6-0.8-4.4-1.8c-0.8-1.1-1.2-2.6-1.2-4.9V132h3.2
			v9.3c0,2.2,0.5,4.2,3.3,4.2s3.9-2.4,3.9-5.1v-8.5h3.2V147.9z"/>
		<path class="st0" d="M249,147.9h-3.2v-9.2c0-1.8-0.3-4.3-2.9-4.3c-2.5,0-3.8,2.4-3.8,5.3v8.2h-3.2v-9.2c0-2.3-0.6-4.3-2.9-4.3
			c-2.5,0-3.8,2.4-3.8,5.3v8.2H226v-15.8h3.2v2.5h0.1c0.7-1.5,2.5-2.8,4.6-2.8c2.3,0,4,1.1,4.7,3.1c1.1-2,2.8-3.1,5-3.1
			c4.2,0,5.4,3.1,5.4,6.5L249,147.9L249,147.9z"/>
		<path class="st0" d="M261.5,148.3c-2.5,0-4.3-1.1-5.5-2.8l0,0v8.7h-3.2v-22h3.1v2.5h0.1c1.4-1.9,3.3-2.8,5.6-2.8
			c4.7,0,7.6,3.5,7.6,8.2C269.2,144.7,266.2,148.3,261.5,148.3z M260.9,134.4c-3.2,0-5,2.4-5,5.6s1.9,5.6,5,5.6c3.2,0,5-2.4,5-5.6
			S264.1,134.4,260.9,134.4z"/>
		<path class="st0" d="M275.3,147.9h-3.2V125h3.2V147.9z"/>
		<path class="st0" d="M292.1,147.9H289v-2c-0.6,0.7-2.1,2.4-5,2.4s-5.5-1.8-5.5-4.9s2.5-4.7,6.2-4.8l4.2-0.2v-0.6
			c0-2.4-1.6-3.6-3.9-3.6c-2.3,0-4.2,1-4.8,1.4l-1-2.1c1.2-0.7,3.3-1.6,5.9-1.6c2.6,0,4.2,0.7,5.2,1.8c1.1,1.1,1.7,2.4,1.7,5.1
			L292.1,147.9L292.1,147.9z M289,140.3l-3.7,0.2c-2.6,0.1-3.6,1.2-3.6,2.7s1.2,2.7,3.3,2.7s3.4-1.4,4-2.3V140.3z"/>
		<path class="st0" d="M309.4,147.9h-3.2v-8.8c0-2.7-0.5-4.7-3.3-4.7c-3,0-4.1,2.5-4.1,5.5v7.9h-3.2V132h3.2v2.5h0.1
			c0.8-1.6,2.5-2.8,4.8-2.8c4.5,0,5.7,3,5.7,6.7V147.9z"/>
		<path class="st0" d="M326.6,147.9h-3.1v-2.3c-0.9,1.5-2.7,2.6-4.9,2.6c-2.3,0-3.6-0.8-4.4-1.8c-0.8-1.1-1.2-2.6-1.2-4.9V132h3.2
			v9.3c0,2.2,0.5,4.2,3.3,4.2s3.9-2.4,3.9-5.1v-8.5h3.2V147.9z"/>
		<path class="st0" d="M344.3,147.9h-3.2v-8.8c0-2.7-0.5-4.7-3.3-4.7c-3,0-4.1,2.5-4.1,5.5v7.9h-3.2V132h3.2v2.5h0.1
			c0.8-1.6,2.5-2.8,4.8-2.8c4.5,0,5.7,3,5.7,6.7V147.9z"/>
		<path class="st0" d="M363.8,144.6c0,3.5-0.6,5.4-1.7,6.8c-1.2,1.4-3.1,3-7,3s-6.6-2-7-2.4l1.5-2.2c0.8,0.7,3.3,2,5.7,2
			s3.7-0.9,4.3-1.7c0.6-0.8,1.2-2.3,1.2-4.4v-0.8h-0.1c-1.1,1.6-2.9,2.8-5.5,2.8c-4.1,0-7.6-2.9-7.6-7.9s3.6-7.9,7.6-7.9
			c2.8,0,4.6,1.3,5.5,2.8h0.1v-2.5h3.2v12.4H363.8z M355.7,134.4c-3.2,0-5,2.4-5,5.4s1.8,5.4,5,5.4c3.3,0,5-2.4,5-5.4
			C360.8,136.8,359,134.4,355.7,134.4z"/>
		<path class="st0" d="M23,190.6h-3.6l-2.4-6H7.2l-2.4,6H1.4l9.3-23h2.8L23,190.6z M16.1,181.9l-4-10.3l-4,10.3H16.1z"/>
		<path class="st0" d="M34.2,189.6c-1.1,0.9-2.6,1.4-4.4,1.4c-2.7,0-4.8-1.1-6.1-2.8l1.5-1.9c1.2,1.5,3.2,2.3,4.7,2.3s3-0.5,3-2.3
			c0-1.7-2.5-2.3-3.6-2.6c-1.1-0.4-1.4-0.4-2.2-0.8c-1-0.5-2.5-1.5-2.5-3.8c0-2.9,2.5-4.5,5.3-4.5s4.4,1,5.4,2.1l-1.3,2
			c-0.9-1-2.5-1.7-4-1.7s-2.5,0.7-2.5,2s1.5,1.9,3.1,2.4c0.9,0.3,1.5,0.5,2.1,0.8s1.4,0.7,1.8,1.1c0.6,0.6,1.3,1.5,1.3,2.9
			C35.8,187.5,35.2,188.7,34.2,189.6z"/>
		<path class="st0" d="M47.6,189.6c-1.1,0.9-2.6,1.4-4.4,1.4c-2.7,0-4.8-1.1-6.1-2.8l1.5-1.9c1.2,1.5,3.2,2.3,4.7,2.3s3-0.5,3-2.3
			c0-1.7-2.5-2.3-3.6-2.6c-1.1-0.4-1.4-0.4-2.2-0.8c-1-0.5-2.5-1.5-2.5-3.8c0-2.9,2.5-4.5,5.3-4.5s4.4,1,5.4,2.1l-1.3,2
			c-0.9-1-2.5-1.7-4-1.7s-2.5,0.7-2.5,2s1.5,1.9,3.1,2.4c0.9,0.3,1.5,0.5,2.1,0.8s1.4,0.7,1.8,1.1c0.6,0.6,1.3,1.5,1.3,2.9
			C49.2,187.5,48.6,188.7,47.6,189.6z"/>
		<path class="st0" d="M59.5,191c-4.7,0-8.4-3.3-8.4-8.2c0-4.9,3.7-8.2,8.4-8.2c4.7,0,8.3,3.4,8.3,8.2C67.8,187.7,64.2,191,59.5,191
			z M59.5,177.1c-3.2,0-5.2,2.5-5.2,5.6s2,5.6,5.2,5.6s5.1-2.5,5.1-5.6C64.6,179.6,62.7,177.1,59.5,177.1z"/>
		<path class="st0" d="M84.1,188.6c-0.5,0.5-2.1,2.4-6.3,2.4c-4.3,0-8-3.2-8-8.2c0-5.1,3.9-8.2,8.1-8.2s6,2.1,6.1,2.3l-1.1,2.3
			c-0.5-0.5-1.9-1.9-4.7-1.9c-2.8,0-5.1,2.1-5.1,5.5s2.1,5.6,5.2,5.6s4.8-2,4.8-2L84.1,188.6z"/>
		<path class="st0" d="M88.3,171.6c-1.2,0-2.1-0.8-2.1-2c0-1.1,0.9-2,2.1-2s2.1,0.8,2.1,2C90.4,170.8,89.5,171.6,88.3,171.6z
			 M89.9,190.6h-3.2v-15.8h3.2V190.6z"/>
		<path class="st0" d="M106.7,190.6h-3.1v-2c-0.6,0.7-2.1,2.4-5,2.4s-5.5-1.8-5.5-4.9s2.5-4.7,6.2-4.8l4.2-0.2v-0.6
			c0-2.4-1.6-3.6-3.9-3.6s-4.2,1-4.8,1.4l-1-2.1c1.2-0.7,3.3-1.6,5.9-1.6s4.2,0.7,5.2,1.8c1.1,1.1,1.7,2.4,1.7,5.1L106.7,190.6
			L106.7,190.6z M103.6,183l-3.7,0.2c-2.6,0.1-3.6,1.2-3.6,2.7s1.2,2.7,3.3,2.7c2.1,0,3.4-1.4,4-2.3L103.6,183L103.6,183z"/>
		<path class="st0" d="M118.1,190.4c0,0-1.2,0.5-2.9,0.5c-1.7,0-2.7-0.6-3.4-1.6c-0.7-1-0.8-2.2-0.8-4.7v-7.2h-2.3v-2.6h2.3v-4.7
			h3.2v4.7h3.8v2.6h-3.7v7.1c0,1.3,0,2.2,0.4,2.9c0.3,0.5,0.7,0.8,1.6,0.8s1.6-0.4,1.6-0.4L118.1,190.4z"/>
		<path class="st0" d="M122.8,171.6c-1.2,0-2.1-0.8-2.1-2c0-1.1,0.9-2,2.1-2s2.1,0.8,2.1,2C124.9,170.8,124,171.6,122.8,171.6z
			 M124.4,190.6h-3.2v-15.8h3.2V190.6z"/>
		<path class="st0" d="M135.6,191c-4.7,0-8.4-3.3-8.4-8.2c0-4.9,3.7-8.2,8.4-8.2c4.7,0,8.3,3.4,8.3,8.2
			C143.9,187.7,140.3,191,135.6,191z M135.6,177.1c-3.2,0-5.2,2.5-5.2,5.6s2,5.6,5.2,5.6s5.1-2.5,5.1-5.6S138.8,177.1,135.6,177.1z"
			/>
		<path class="st0" d="M160.2,190.6H157v-8.8c0-2.7-0.5-4.7-3.3-4.7c-3,0-4.1,2.5-4.1,5.5v7.9h-3.2v-15.8h3.2v2.5h0.1
			c0.8-1.6,2.5-2.8,4.8-2.8c4.5,0,5.7,3,5.7,6.7V190.6z"/>
		<path class="st0" d="M179.8,191c-2.5,0-4.3-1.1-5.5-2.8l0,0v8.7h-3.2v-22h3.1v2.5h0.1c1.4-1.9,3.3-2.8,5.6-2.8
			c4.7,0,7.6,3.5,7.6,8.2S184.5,191,179.8,191z M179.2,177.1c-3.2,0-5,2.4-5,5.6s1.9,5.6,5,5.6c3.2,0,5-2.4,5-5.6
			S182.4,177.1,179.2,177.1z"/>
		<path class="st0" d="M198.1,191c-4.7,0-8.4-3.3-8.4-8.2c0-4.9,3.7-8.2,8.4-8.2s8.3,3.4,8.3,8.2C206.5,187.7,202.8,191,198.1,191z
			 M198.1,177.1c-3.2,0-5.2,2.5-5.2,5.6s2,5.6,5.2,5.6s5.1-2.5,5.1-5.6C203.2,179.6,201.3,177.1,198.1,177.1z"/>
		<path class="st0" d="M222.4,190.6h-3.1v-2.3c-0.9,1.5-2.7,2.6-4.9,2.6c-2.3,0-3.6-0.8-4.4-1.8c-0.8-1.1-1.2-2.6-1.2-4.9v-9.5h3.2
			v9.3c0,2.2,0.5,4.2,3.3,4.2s3.9-2.4,3.9-5.1v-8.5h3.2V190.6z"/>
		<path class="st0" d="M234.7,177.7L234.7,177.7c-0.4-0.1-1-0.3-1.8-0.3c-1.4,0-2.3,0.9-2.6,1.3s-1,1.7-1,4v7.9h-3.2v-15.8h3.2v2.4
			h0.1c0.8-1.8,2.2-2.7,3.9-2.7c1.1,0,1.7,0.3,1.7,0.3L234.7,177.7z"/>
		<path class="st0" d="M247.1,190.6h-3.2v-22.9h3.2V190.6z"/>
		<path class="st0" d="M256.5,167.7l-2.2,7.1H251l3-7.1H256.5z"/>
		<path class="st0" d="M271.7,190.6h-3.1v-2c-0.6,0.7-2.1,2.4-5,2.4s-5.5-1.8-5.5-4.9s2.5-4.7,6.2-4.8l4.2-0.2v-0.6
			c0-2.4-1.6-3.6-3.9-3.6s-4.2,1-4.8,1.4l-1-2.1c1.2-0.7,3.3-1.6,5.9-1.6s4.2,0.7,5.2,1.8c1.1,1.1,1.7,2.4,1.7,5.1L271.7,190.6
			L271.7,190.6z M268.5,183l-3.7,0.2c-2.6,0.1-3.6,1.2-3.6,2.7s1.2,2.7,3.3,2.7s3.4-1.4,4-2.3V183z"/>
		<path class="st0" d="M297.8,190.6h-3.2v-9.2c0-1.8-0.3-4.3-2.9-4.3c-2.5,0-3.8,2.4-3.8,5.3v8.2h-3.2v-9.2c0-2.3-0.6-4.3-2.9-4.3
			c-2.5,0-3.8,2.4-3.8,5.3v8.2h-3.2v-15.8h3.2v2.5h0.1c0.7-1.5,2.5-2.8,4.6-2.8c2.3,0,4,1.1,4.7,3.1c1.1-2,2.8-3.1,5-3.1
			c4.2,0,5.4,3.1,5.4,6.5L297.8,190.6L297.8,190.6z"/>
		<path class="st0" d="M316,183.5h-12.2c0.2,3.1,2.2,5,5.1,5c3,0,4.9-1.6,5.2-1.8l1.3,1.8c-0.2,0.2-2.2,2.5-6.9,2.5
			s-7.9-3.3-7.9-8.3s3.6-8.2,8-8.2s7.5,3.1,7.5,7.5C316.1,182.7,316,183.5,316,183.5z M313.1,181.3c0-1.8-1.4-4.5-4.6-4.5
			c-3.2,0-4.6,2.6-4.7,4.5H313.1z M312.8,167.7l-3.7,4.8h-2.4l3-4.8H312.8z"/>
		<path class="st0" d="M333,190.6h-3.2v-8.8c0-2.7-0.5-4.7-3.3-4.7c-3,0-4.1,2.5-4.1,5.5v7.9h-3.1v-15.8h3.2v2.5h0.1
			c0.8-1.6,2.5-2.8,4.8-2.8c4.5,0,5.7,3,5.7,6.7L333,190.6L333,190.6z"/>
		<path class="st0" d="M349.5,190.6h-3.1v-2c-0.6,0.7-2.1,2.4-5,2.4s-5.5-1.8-5.5-4.9s2.5-4.7,6.2-4.8l4.2-0.2v-0.6
			c0-2.4-1.6-3.6-3.9-3.6c-2.3,0-4.2,1-4.8,1.4l-1-2.1c1.2-0.7,3.3-1.6,5.9-1.6s4.2,0.7,5.2,1.8c1.1,1.1,1.7,2.4,1.7,5.1
			L349.5,190.6L349.5,190.6z M346.3,183l-3.7,0.2c-2.6,0.1-3.6,1.2-3.6,2.7s1.2,2.7,3.3,2.7s3.4-1.4,4-2.3V183z"/>
		<path class="st0" d="M368.9,187.3c0,3.5-0.6,5.4-1.7,6.8c-1.2,1.4-3.1,3-7,3s-6.6-2-7-2.4l1.5-2.2c0.8,0.7,3.3,2,5.7,2
			s3.7-0.9,4.3-1.7c0.6-0.8,1.2-2.3,1.2-4.4v-0.8h-0.1c-1.1,1.6-2.9,2.8-5.5,2.8c-4.1,0-7.6-2.9-7.6-7.9s3.6-7.9,7.6-7.9
			c2.8,0,4.6,1.3,5.5,2.8h0.1v-2.5h3.2v12.4H368.9z M360.8,177.1c-3.2,0-5,2.4-5,5.4s1.8,5.4,5,5.4c3.3,0,5-2.4,5-5.4
			S364,177.1,360.8,177.1z"/>
		<path class="st0" d="M387.1,183.5h-12.2c0.2,3.1,2.2,5,5.1,5c3,0,4.9-1.6,5.2-1.8l1.3,1.8c-0.2,0.2-2.2,2.5-6.9,2.5
			s-7.9-3.3-7.9-8.3s3.6-8.2,8-8.2s7.5,3.1,7.5,7.5C387.2,182.7,387.1,183.5,387.1,183.5z M384.2,181.3c0-1.8-1.4-4.5-4.6-4.5
			c-3.2,0-4.6,2.6-4.7,4.5H384.2z"/>
		<path class="st0" d="M412.9,190.6h-3.2v-9.2c0-1.8-0.3-4.3-2.9-4.3c-2.5,0-3.8,2.4-3.8,5.3v8.2h-3.2v-9.2c0-2.3-0.6-4.3-2.9-4.3
			c-2.5,0-3.8,2.4-3.8,5.3v8.2h-3.2v-15.8h3.2v2.5h0.1c0.7-1.5,2.5-2.8,4.6-2.8c2.3,0,4,1.1,4.7,3.1c1.1-2,2.8-3.1,5-3.1
			c4.2,0,5.4,3.1,5.4,6.5L412.9,190.6L412.9,190.6z"/>
		<path class="st0" d="M431.3,183.5h-12.2c0.2,3.1,2.2,5,5.1,5c3,0,4.9-1.6,5.2-1.8l1.3,1.8c-0.2,0.2-2.2,2.5-6.9,2.5
			s-7.9-3.3-7.9-8.3s3.6-8.2,8-8.2s7.5,3.1,7.5,7.5C431.4,182.7,431.3,183.5,431.3,183.5z M428.4,181.3c0-1.8-1.4-4.5-4.6-4.5
			c-3.2,0-4.6,2.6-4.7,4.5H428.4z"/>
		<path class="st0" d="M447.9,190.6h-3.2v-8.8c0-2.7-0.5-4.7-3.3-4.7c-3,0-4.1,2.5-4.1,5.5v7.9h-3.2v-15.8h3.2v2.5h0.1
			c0.8-1.6,2.5-2.8,4.8-2.8c4.5,0,5.7,3,5.7,6.7V190.6z"/>
		<path class="st0" d="M459.8,190.4c0,0-1.2,0.5-2.9,0.5s-2.7-0.6-3.4-1.6s-0.8-2.2-0.8-4.7v-7.2h-2.3v-2.6h2.3v-4.7h3.2v4.7h3.8
			v2.6h-3.8v7.1c0,1.3,0,2.2,0.4,2.9c0.3,0.5,0.7,0.8,1.6,0.8c0.9,0,1.6-0.4,1.6-0.4L459.8,190.4z"/>
		<path class="st0" d="M484.4,190.6h-3.1v-2.5l0,0c-1.3,1.9-3.3,2.9-5.5,2.9c-4.7,0-7.7-3.6-7.7-8.3c0-4.7,3-8.2,7.6-8.2
			c2.6,0,4.4,1.1,5.5,2.8h0.1v-9.6h3.2L484.4,190.6L484.4,190.6z M476.3,177.1c-3.2,0-5,2.4-5,5.6s1.9,5.6,5,5.6c3.2,0,5-2.4,5-5.6
			S479.5,177.1,476.3,177.1z"/>
		<path class="st0" d="M501.7,190.6h-3.1v-2.3c-0.9,1.5-2.7,2.6-4.9,2.6c-2.3,0-3.6-0.8-4.4-1.8c-0.8-1.1-1.2-2.6-1.2-4.9v-9.5h3.2
			v9.3c0,2.2,0.5,4.2,3.3,4.2s3.9-2.4,3.9-5.1v-8.5h3.2V190.6z"/>
		<path class="st0" d="M520.4,190.4c0,0-1.2,0.5-2.9,0.5s-2.7-0.6-3.4-1.6s-0.8-2.2-0.8-4.7v-7.2H511v-2.6h2.3v-4.7h3.2v4.7h3.8v2.6
			h-3.8v7.1c0,1.3,0,2.2,0.4,2.9c0.3,0.5,0.7,0.8,1.6,0.8c0.9,0,1.6-0.4,1.6-0.4L520.4,190.4z"/>
		<path class="st0" d="M537.3,183.5h-12.2c0.2,3.1,2.2,5,5.1,5c3,0,4.9-1.6,5.2-1.8l1.3,1.8c-0.2,0.2-2.2,2.5-6.9,2.5
			s-7.9-3.3-7.9-8.3s3.6-8.2,8-8.2s7.5,3.1,7.5,7.5C537.4,182.7,537.3,183.5,537.3,183.5z M534.4,181.3c0-1.8-1.4-4.5-4.6-4.5
			c-3.2,0-4.6,2.6-4.7,4.5H534.4z"/>
		<path class="st0" d="M548.9,177.7L548.9,177.7c-0.4-0.1-1-0.3-1.8-0.3c-1.4,0-2.3,0.9-2.6,1.3s-1,1.7-1,4v7.9h-3.2v-15.8h3.2v2.4
			h0.1c0.8-1.8,2.2-2.7,3.9-2.7c1.1,0,1.7,0.3,1.7,0.3L548.9,177.7z"/>
		<path class="st0" d="M560,177.7L560,177.7c-0.4-0.1-1-0.3-1.8-0.3c-1.4,0-2.3,0.9-2.6,1.3s-1,1.7-1,4v7.9h-3.2v-15.8h3.2v2.4h0.1
			c0.8-1.8,2.2-2.7,3.9-2.7c1.1,0,1.7,0.3,1.7,0.3L560,177.7z"/>
		<path class="st0" d="M564.2,171.6c-1.2,0-2.1-0.8-2.1-2c0-1.1,0.9-2,2.1-2c1.2,0,2.1,0.8,2.1,2
			C566.3,170.8,565.4,171.6,564.2,171.6z M565.8,190.6h-3.2v-15.8h3.2V190.6z"/>
		<path class="st0" d="M578.2,190.4c0,0-1.2,0.5-2.9,0.5s-2.7-0.6-3.4-1.6s-0.8-2.2-0.8-4.7v-7.2h-2.3v-2.6h2.3v-4.7h3.2v4.7h3.8
			v2.6h-3.8v7.1c0,1.3,0,2.2,0.4,2.9c0.3,0.5,0.7,0.8,1.6,0.8c0.9,0,1.6-0.4,1.6-0.4L578.2,190.4z"/>
		<path class="st0" d="M588,191c-4.7,0-8.4-3.3-8.4-8.2c0-4.9,3.7-8.2,8.4-8.2s8.3,3.4,8.3,8.2C596.3,187.7,592.7,191,588,191z
			 M588,177.1c-3.2,0-5.2,2.5-5.2,5.6s2,5.6,5.2,5.6s5.1-2.5,5.1-5.6S591.1,177.1,588,177.1z"/>
		<path class="st0" d="M601,171.6c-1.2,0-2.1-0.8-2.1-2c0-1.1,0.9-2,2.1-2c1.2,0,2.1,0.8,2.1,2C603.1,170.8,602.2,171.6,601,171.6z
			 M602.6,190.6h-3.2v-15.8h3.2V190.6z"/>
		<path class="st0" d="M615.3,177.7L615.3,177.7c-0.4-0.1-1-0.3-1.8-0.3c-1.4,0-2.3,0.9-2.6,1.3s-1,1.7-1,4v7.9h-3.2v-15.8h3.2v2.4
			h0.1c0.8-1.8,2.2-2.7,3.9-2.7c1.1,0,1.7,0.3,1.7,0.3L615.3,177.7z"/>
		<path class="st0" d="M632.3,183.5h-12.2c0.2,3.1,2.2,5,5.1,5c3,0,4.9-1.6,5.2-1.8l1.3,1.8c-0.2,0.2-2.2,2.5-6.9,2.5
			s-7.9-3.3-7.9-8.3s3.6-8.2,8-8.2s7.5,3.1,7.5,7.5C632.4,182.7,632.3,183.5,632.3,183.5z M629.3,181.3c0-1.8-1.4-4.5-4.6-4.5
			c-3.2,0-4.6,2.6-4.7,4.5H629.3z"/>
		<path class="st0" d="M23,233.3h-3.6l-2.4-6H7.2l-2.4,6H1.4l9.3-23h2.8L23,233.3z M16.1,224.6l-4-10.3l-4,10.3H16.1z"/>
		<path class="st0" d="M34.2,232.3c-1.1,0.9-2.6,1.4-4.4,1.4c-2.7,0-4.8-1.1-6.1-2.8l1.5-1.9c1.2,1.5,3.2,2.3,4.7,2.3s3-0.5,3-2.3
			c0-1.7-2.5-2.3-3.6-2.6c-1.1-0.4-1.4-0.4-2.2-0.8c-1-0.5-2.5-1.5-2.5-3.8c0-2.9,2.5-4.5,5.3-4.5s4.4,1,5.4,2.1l-1.3,2
			c-0.9-1-2.5-1.7-4-1.7s-2.5,0.7-2.5,2s1.5,1.9,3.1,2.4c0.9,0.3,1.5,0.5,2.1,0.8s1.4,0.7,1.8,1.1c0.6,0.6,1.3,1.5,1.3,2.9
			C35.8,230.2,35.2,231.4,34.2,232.3z"/>
		<path class="st0" d="M47.6,232.3c-1.1,0.9-2.6,1.4-4.4,1.4c-2.7,0-4.8-1.1-6.1-2.8l1.5-1.9c1.2,1.5,3.2,2.3,4.7,2.3s3-0.5,3-2.3
			c0-1.7-2.5-2.3-3.6-2.6c-1.1-0.4-1.4-0.4-2.2-0.8c-1-0.5-2.5-1.5-2.5-3.8c0-2.9,2.5-4.5,5.3-4.5s4.4,1,5.4,2.1l-1.3,2
			c-0.9-1-2.5-1.7-4-1.7s-2.5,0.7-2.5,2s1.5,1.9,3.1,2.4c0.9,0.3,1.5,0.5,2.1,0.8s1.4,0.7,1.8,1.1c0.6,0.6,1.3,1.5,1.3,2.9
			C49.2,230.2,48.6,231.4,47.6,232.3z"/>
		<path class="st0" d="M59.5,233.6c-4.7,0-8.4-3.3-8.4-8.2c0-4.9,3.7-8.2,8.4-8.2c4.7,0,8.3,3.4,8.3,8.2
			C67.8,230.4,64.2,233.6,59.5,233.6z M59.5,219.8c-3.2,0-5.2,2.5-5.2,5.6s2,5.6,5.2,5.6s5.1-2.5,5.1-5.6
			C64.6,222.2,62.7,219.8,59.5,219.8z"/>
		<path class="st0" d="M84.1,231.3c-0.5,0.5-2.1,2.4-6.3,2.4c-4.3,0-8-3.2-8-8.2c0-5.1,3.9-8.2,8.1-8.2s6,2.1,6.1,2.3l-1.1,2.3
			c-0.5-0.5-1.9-1.9-4.7-1.9c-2.8,0-5.1,2.1-5.1,5.5s2.1,5.6,5.2,5.6s4.8-2,4.8-2L84.1,231.3z"/>
		<path class="st0" d="M88.3,214.3c-1.2,0-2.1-0.8-2.1-2c0-1.1,0.9-2,2.1-2s2.1,0.8,2.1,2C90.4,213.4,89.5,214.3,88.3,214.3z
			 M89.9,233.3h-3.2v-15.8h3.2V233.3z"/>
		<path class="st0" d="M106.7,233.3h-3.1v-2c-0.6,0.7-2.1,2.4-5,2.4s-5.5-1.8-5.5-4.9s2.5-4.7,6.2-4.8l4.2-0.2v-0.6
			c0-2.4-1.6-3.6-3.9-3.6s-4.2,1-4.8,1.4l-1-2.1c1.2-0.7,3.3-1.6,5.9-1.6s4.2,0.7,5.2,1.8c1.1,1.1,1.7,2.4,1.7,5.1L106.7,233.3
			L106.7,233.3z M103.6,225.7l-3.7,0.2c-2.6,0.1-3.6,1.2-3.6,2.7s1.2,2.7,3.3,2.7c2.1,0,3.4-1.4,4-2.3L103.6,225.7L103.6,225.7z"/>
		<path class="st0" d="M122.6,233.3h-13.8v-2l9.2-11.2h-8.7v-2.6h12.8v1.9l-9.2,11.2h9.7V233.3z"/>
		<path class="st0" d="M127.2,214.3c-1.2,0-2.1-0.8-2.1-2c0-1.1,0.9-2,2.1-2c1.2,0,2.1,0.8,2.1,2
			C129.3,213.4,128.4,214.3,127.2,214.3z M128.8,233.3h-3.2v-15.8h3.2V233.3z"/>
		<path class="st0" d="M140,233.6c-4.7,0-8.4-3.3-8.4-8.2c0-4.9,3.7-8.2,8.4-8.2c4.7,0,8.3,3.4,8.3,8.2
			C148.3,230.4,144.7,233.6,140,233.6z M140,219.8c-3.2,0-5.2,2.5-5.2,5.6s2,5.6,5.2,5.6s5.1-2.5,5.1-5.6
			C145.1,222.2,143.1,219.8,140,219.8z"/>
		<path class="st0" d="M164.5,233.3h-3.2v-8.8c0-2.7-0.5-4.7-3.3-4.7c-3,0-4.1,2.5-4.1,5.5v7.9h-3.2v-15.8h3.2v2.5h0.1
			c0.8-1.6,2.5-2.8,4.8-2.8c4.5,0,5.7,3,5.7,6.7V233.3z"/>
		<path class="st0" d="M182.4,226.1h-12.1c0.2,3.1,2.2,5,5.1,5c3,0,4.9-1.6,5.2-1.8l1.3,1.8c-0.2,0.2-2.2,2.5-6.9,2.5
			c-4.7,0-7.9-3.3-7.9-8.3s3.6-8.2,8-8.2s7.5,3.1,7.5,7.5C182.5,225.3,182.4,226.1,182.4,226.1z M179.5,224c0-1.8-1.4-4.5-4.6-4.5
			s-4.6,2.6-4.7,4.5H179.5z"/>
		<path class="st0" d="M201.1,233.6c-2.5,0-4.3-1.1-5.5-2.8l0,0v8.7h-3.2v-22h3.1v2.5h0.1c1.4-1.9,3.3-2.8,5.6-2.8
			c4.7,0,7.6,3.5,7.6,8.2S205.8,233.6,201.1,233.6z M200.5,219.8c-3.2,0-5,2.4-5,5.6s1.9,5.6,5,5.6c3.2,0,5-2.4,5-5.6
			C205.5,222.2,203.7,219.8,200.5,219.8z"/>
		<path class="st0" d="M226.1,226.1h-12.2c0.2,3.1,2.2,5,5.1,5c3,0,4.9-1.6,5.2-1.8l1.3,1.8c-0.2,0.2-2.2,2.5-6.9,2.5
			s-7.9-3.3-7.9-8.3s3.6-8.2,8-8.2s7.5,3.1,7.5,7.5C226.2,225.3,226.1,226.1,226.1,226.1z M223.2,224c0-1.8-1.4-4.5-4.6-4.5
			c-3.2,0-4.6,2.6-4.7,4.5H223.2z"/>
		<path class="st0" d="M237.6,220.4L237.6,220.4c-0.4-0.1-1-0.3-1.8-0.3c-1.4,0-2.3,0.9-2.6,1.3s-1,1.7-1,4v7.9H229v-15.8h3.2v2.4
			h0.1c0.8-1.8,2.2-2.7,3.9-2.7c1.1,0,1.7,0.3,1.7,0.3L237.6,220.4z"/>
		<path class="st0" d="M250.1,233.3h-3.2v-22.9h3.2V233.3z"/>
		<path class="st0" d="M266.9,233.3h-3.1v-2c-0.6,0.7-2.1,2.4-5,2.4c-2.9,0-5.5-1.8-5.5-4.9s2.5-4.7,6.2-4.8l4.2-0.2v-0.6
			c0-2.4-1.6-3.6-3.9-3.6s-4.2,1-4.8,1.4l-1-2.1c1.2-0.7,3.3-1.6,5.9-1.6s4.2,0.7,5.2,1.8c1.1,1.1,1.7,2.4,1.7,5.1L266.9,233.3
			L266.9,233.3z M263.7,225.7l-3.7,0.2c-2.6,0.1-3.6,1.2-3.6,2.7s1.2,2.7,3.3,2.7s3.4-1.4,4-2.3V225.7z"/>
		<path class="st0" d="M286.4,233.6c-2.5,0-4.3-1.1-5.5-2.8l0,0v8.7h-3.2v-22h3.1v2.5h0.1c1.4-1.9,3.3-2.8,5.6-2.8
			c4.7,0,7.6,3.5,7.6,8.2S291.1,233.6,286.4,233.6z M285.8,219.8c-3.2,0-5,2.4-5,5.6s1.9,5.6,5,5.6c3.2,0,5-2.4,5-5.6
			C290.8,222.2,288.9,219.8,285.8,219.8z"/>
		<path class="st0" d="M298.6,214.3c-1.2,0-2.1-0.8-2.1-2c0-1.1,0.9-2,2.1-2c1.2,0,2.1,0.8,2.1,2
			C300.7,213.4,299.8,214.3,298.6,214.3z M300.2,233.3H297v-15.8h3.2V233.3z"/>
		<path class="st0" d="M317,233.3h-3.1v-2c-0.6,0.7-2.1,2.4-5,2.4s-5.5-1.8-5.5-4.9s2.5-4.7,6.2-4.8l4.2-0.2v-0.6
			c0-2.4-1.6-3.6-3.9-3.6c-2.3,0-4.2,1-4.8,1.4l-1-2.1c1.2-0.7,3.3-1.6,5.9-1.6s4.2,0.7,5.2,1.8c1.1,1.1,1.7,2.4,1.7,5.1L317,233.3
			L317,233.3z M313.8,225.7l-3.7,0.2c-2.6,0.1-3.6,1.2-3.6,2.7s1.2,2.7,3.3,2.7s3.4-1.4,4-2.3V225.7z"/>
		<path class="st0" d="M333.9,233.3h-3.2v-8.8c0-2.7-0.5-4.7-3.3-4.7c-3,0-4.1,2.5-4.1,5.5v7.9h-3.2v-15.8h3.2v2.5h0.1
			c0.8-1.6,2.5-2.8,4.8-2.8c4.5,0,5.7,3,5.7,6.7V233.3z"/>
		<path class="st0" d="M339.3,214.3c-1.2,0-2.1-0.8-2.1-2c0-1.1,0.9-2,2.1-2c1.2,0,2.1,0.8,2.1,2
			C341.3,213.4,340.4,214.3,339.3,214.3z M340.8,233.3h-3.2v-15.8h3.2V233.3z"/>
		<path class="st0" d="M353.4,212.7c0,0-0.8-0.3-1.7-0.3c-2.5,0-2.4,2.3-2.4,4.2v1h3.8v2.6h-3.8v13.2h-3.2v-13.2h-2.3v-2.6h2.3V216
			c0-2.1,0.3-3.4,1.1-4.2c0.8-0.9,1.8-1.7,3.9-1.7c1.3,0,2.5,0.4,2.5,0.4L353.4,212.7z M356.7,214.3c-1.2,0-2.1-0.8-2.1-2
			c0-1.1,0.9-2,2.1-2c1.2,0,2.1,0.8,2.1,2C358.8,213.4,357.9,214.3,356.7,214.3z M358.3,233.3h-3.2v-15.8h3.2V233.3z"/>
		<path class="st0" d="M375.7,231.3c-0.5,0.5-2.1,2.4-6.3,2.4c-4.3,0-8-3.2-8-8.2c0-5.1,3.9-8.2,8.1-8.2c4.2,0,6,2.1,6.1,2.3
			l-1.1,2.3c-0.5-0.5-1.9-1.9-4.7-1.9s-5.1,2.1-5.1,5.5s2.1,5.6,5.2,5.6c3.1,0,4.8-2,4.8-2L375.7,231.3z"/>
		<path class="st0" d="M391,233.3h-3.1v-2c-0.6,0.7-2.1,2.4-5,2.4s-5.5-1.8-5.5-4.9s2.5-4.7,6.2-4.8l4.2-0.2v-0.6
			c0-2.4-1.6-3.6-3.9-3.6s-4.2,1-4.8,1.4l-1-2.1c1.2-0.7,3.3-1.6,5.9-1.6s4.2,0.7,5.2,1.8c1.1,1.1,1.7,2.4,1.7,5.1L391,233.3
			L391,233.3z M387.8,225.7l-3.7,0.2c-2.6,0.1-3.6,1.2-3.6,2.7s1.2,2.7,3.3,2.7s3.4-1.4,4-2.3V225.7z"/>
		<path class="st0" d="M407.2,233.3h-13.8v-2l9.2-11.2h-8.8v-2.6h12.8v1.9l-9.2,11.2h9.7L407.2,233.3L407.2,233.3z"/>
		<path class="st0" d="M411.6,214.3c-1.2,0-2.1-0.8-2.1-2c0-1.1,0.9-2,2.1-2c1.2,0,2.1,0.8,2.1,2
			C413.7,213.4,412.8,214.3,411.6,214.3z M413.2,233.3H410v-15.8h3.2V233.3z"/>
		<path class="st0" d="M424.5,233.6c-4.7,0-8.4-3.3-8.4-8.2c0-4.9,3.7-8.2,8.4-8.2s8.3,3.4,8.3,8.2
			C432.9,230.4,429.2,233.6,424.5,233.6z M424.5,219.8c-3.2,0-5.2,2.5-5.2,5.6s2,5.6,5.2,5.6s5.1-2.5,5.1-5.6
			C429.6,222.2,427.7,219.8,424.5,219.8z"/>
		<path class="st0" d="M449.4,233.3h-3.2v-8.8c0-2.7-0.5-4.7-3.3-4.7c-3,0-4.1,2.5-4.1,5.5v7.9h-3.2v-15.8h3.2v2.5h0.1
			c0.8-1.6,2.5-2.8,4.8-2.8c4.5,0,5.7,3,5.7,6.7V233.3z"/>
		<path class="st0" d="M467.6,226.1h-12.2c0.2,3.1,2.2,5,5.1,5c3,0,4.9-1.6,5.2-1.8l1.3,1.8c-0.2,0.2-2.2,2.5-6.9,2.5
			s-7.9-3.3-7.9-8.3s3.6-8.2,8-8.2s7.5,3.1,7.5,7.5C467.7,225.3,467.6,226.1,467.6,226.1z M464.7,224c0-1.8-1.4-4.5-4.6-4.5
			c-3.2,0-4.6,2.6-4.7,4.5H464.7z"/>
		<path class="st0" d="M492.8,233.3h-3.1v-2.5h-0.1c-1.3,1.9-3.3,2.9-5.5,2.9c-4.7,0-7.7-3.6-7.7-8.3c0-4.7,3-8.2,7.6-8.2
			c2.6,0,4.4,1.1,5.5,2.8h0.1v-9.6h3.2V233.3z M484.7,219.8c-3.2,0-5,2.4-5,5.6s1.9,5.6,5,5.6c3.2,0,5-2.4,5-5.6
			C489.7,222.2,487.9,219.8,484.7,219.8z"/>
		<path class="st0" d="M511,226.1h-12.2c0.2,3.1,2.2,5,5.1,5c3,0,4.9-1.6,5.2-1.8l1.3,1.8c-0.2,0.2-2.2,2.5-6.9,2.5
			s-7.9-3.3-7.9-8.3s3.6-8.2,8-8.2s7.5,3.1,7.5,7.5C511.1,225.3,511,226.1,511,226.1z M508.1,224c0-1.8-1.4-4.5-4.6-4.5
			c-3.2,0-4.6,2.6-4.7,4.5H508.1z"/>
		<path class="st0" d="M517.2,233.3H514v-22.9h3.2V233.3z"/>
		<path class="st0" d="M536.1,233.1c0,0-1.2,0.5-2.9,0.5s-2.7-0.6-3.4-1.6s-0.8-2.2-0.8-4.7v-7.2h-2.3v-2.6h2.3v-4.7h3.2v4.7h3.8
			v2.6h-3.8v7.1c0,1.3,0,2.2,0.4,2.9c0.3,0.5,0.7,0.8,1.6,0.8c0.9,0,1.6-0.4,1.6-0.4L536.1,233.1z"/>
		<path class="st0" d="M553,226.1h-12.2c0.2,3.1,2.2,5,5.1,5c3,0,4.9-1.6,5.2-1.8l1.3,1.8c-0.2,0.2-2.2,2.5-6.9,2.5
			s-7.9-3.3-7.9-8.3s3.6-8.2,8-8.2s7.5,3.1,7.5,7.5C553.2,225.3,553,226.1,553,226.1z M550.1,224c0-1.8-1.4-4.5-4.6-4.5
			c-3.2,0-4.6,2.6-4.7,4.5H550.1z"/>
		<path class="st0" d="M564.4,220.4L564.4,220.4c-0.4-0.1-1-0.3-1.8-0.3c-1.4,0-2.3,0.9-2.6,1.3s-1,1.7-1,4v7.9h-3.2v-15.8h3.2v2.4
			h0.1c0.8-1.8,2.2-2.7,3.9-2.7c1.1,0,1.7,0.3,1.7,0.3L564.4,220.4z"/>
		<path class="st0" d="M575.7,220.4L575.7,220.4c-0.4-0.1-1-0.3-1.8-0.3c-1.4,0-2.3,0.9-2.6,1.3s-1,1.7-1,4v7.9h-3.2v-15.8h3.2v2.4
			h0.1c0.8-1.8,2.2-2.7,3.9-2.7c1.1,0,1.7,0.3,1.7,0.3L575.7,220.4z"/>
		<path class="st0" d="M580.1,214.3c-1.2,0-2.1-0.8-2.1-2c0-1.1,0.9-2,2.1-2c1.2,0,2.1,0.8,2.1,2
			C582.2,213.4,581.3,214.3,580.1,214.3z M581.7,233.3h-3.2v-15.8h3.2V233.3z"/>
		<path class="st0" d="M593.9,233.1c0,0-1.2,0.5-2.9,0.5s-2.7-0.6-3.4-1.6s-0.8-2.2-0.8-4.7v-7.2h-2.3v-2.6h2.3v-4.7h3.2v4.7h3.8
			v2.6H590v7.1c0,1.3,0,2.2,0.4,2.9c0.3,0.5,0.7,0.8,1.6,0.8c0.9,0,1.6-0.4,1.6-0.4L593.9,233.1z"/>
		<path class="st0" d="M603.7,233.6c-4.7,0-8.4-3.3-8.4-8.2c0-4.9,3.7-8.2,8.4-8.2s8.3,3.4,8.3,8.2
			C612,230.4,608.4,233.6,603.7,233.6z M603.7,219.8c-3.2,0-5.2,2.5-5.2,5.6s2,5.6,5.2,5.6s5.1-2.5,5.1-5.6
			C608.8,222.2,606.9,219.8,603.7,219.8z"/>
		<path class="st0" d="M623.3,220.4L623.3,220.4c-0.4-0.1-1-0.3-1.8-0.3c-1.4,0-2.3,0.9-2.6,1.3s-1,1.7-1,4v7.9h-3.2v-15.8h3.2v2.4
			h0.1c0.8-1.8,2.2-2.7,3.9-2.7c1.1,0,1.7,0.3,1.7,0.3L623.3,220.4z"/>
		<path class="st0" d="M627.7,214.3c-1.2,0-2.1-0.8-2.1-2c0-1.1,0.9-2,2.1-2c1.2,0,2.1,0.8,2.1,2
			C629.8,213.4,628.9,214.3,627.7,214.3z M629.3,233.3h-3.2v-15.8h3.2V233.3z"/>
		<path class="st0" d="M640.5,233.6c-4.7,0-8.4-3.3-8.4-8.2c0-4.9,3.7-8.2,8.4-8.2s8.3,3.4,8.3,8.2
			C648.8,230.4,645.2,233.6,640.5,233.6z M640.5,219.8c-3.2,0-5.2,2.5-5.2,5.6s2,5.6,5.2,5.6s5.1-2.5,5.1-5.6
			C645.6,222.2,643.6,219.8,640.5,219.8z"/>
		<path class="st0" d="M23,276h-3.6l-2.4-6H7.2l-2.4,6H1.4l9.3-23h2.8L23,276z M16.1,267.3l-4-10.3l-4,10.3H16.1z"/>
		<path class="st0" d="M33.9,274.9c-1.1,0.9-2.6,1.4-4.4,1.4c-2.7,0-4.8-1.1-6.1-2.8l1.5-1.9c1.2,1.5,3.2,2.3,4.7,2.3s3-0.5,3-2.3
			s-2.5-2.3-3.6-2.6c-1.1-0.4-1.4-0.4-2.2-0.8c-1-0.5-2.5-1.5-2.5-3.8c0-2.9,2.5-4.5,5.3-4.5s4.4,1,5.4,2.1l-1.3,2
			c-0.9-1-2.5-1.7-4-1.7s-2.5,0.7-2.5,2s1.5,1.9,3.1,2.4c0.9,0.3,1.5,0.5,2.1,0.8s1.4,0.7,1.8,1.1c0.6,0.6,1.3,1.5,1.3,2.9
			C35.5,272.9,34.9,274.1,33.9,274.9z"/>
		<path class="st0" d="M46.9,274.9c-1.1,0.9-2.6,1.4-4.4,1.4c-2.7,0-4.8-1.1-6.1-2.8l1.5-1.9c1.2,1.5,3.2,2.3,4.7,2.3s3-0.5,3-2.3
			s-2.5-2.3-3.6-2.6c-1.1-0.4-1.4-0.4-2.2-0.8c-1-0.5-2.5-1.5-2.5-3.8c0-2.9,2.5-4.5,5.3-4.5s4.4,1,5.4,2.1l-1.3,2
			c-0.9-1-2.5-1.7-4-1.7s-2.5,0.7-2.5,2s1.5,1.9,3.1,2.4c0.9,0.3,1.5,0.5,2.1,0.8s1.4,0.7,1.8,1.1c0.6,0.6,1.3,1.5,1.3,2.9
			C48.6,272.9,48,274.1,46.9,274.9z"/>
		<path class="st0" d="M58.7,276.3c-4.7,0-8.4-3.3-8.4-8.2c0-4.9,3.7-8.2,8.4-8.2c4.7,0,8.3,3.4,8.3,8.2
			C67,273,63.4,276.3,58.7,276.3z M58.7,262.5c-3.2,0-5.2,2.5-5.2,5.6s2,5.6,5.2,5.6s5.1-2.5,5.1-5.6
			C63.8,264.9,61.8,262.5,58.7,262.5z"/>
		<path class="st0" d="M83.2,273.9c-0.5,0.5-2.1,2.4-6.3,2.4c-4.3,0-8-3.2-8-8.2c0-5.1,3.9-8.2,8.1-8.2s6,2.1,6.1,2.3l-1.1,2.3
			c-0.5-0.5-1.9-1.9-4.7-1.9c-2.8,0-5.1,2.1-5.1,5.5c0,3.3,2.1,5.6,5.2,5.6s4.8-2,4.8-2L83.2,273.9z"/>
		<path class="st0" d="M87.2,257c-1.2,0-2.1-0.8-2.1-2c0-1.1,0.9-2,2.1-2s2.1,0.8,2.1,2C89.2,256.1,88.4,257,87.2,257z M88.8,276
			h-3.2v-15.8h3.2V276z"/>
		<path class="st0" d="M105.2,276h-3.1v-2c-0.6,0.7-2.1,2.4-5,2.4s-5.5-1.8-5.5-4.9s2.5-4.7,6.2-4.8l4.2-0.2v-0.6
			c0-2.4-1.6-3.6-3.9-3.6s-4.2,1-4.8,1.4l-1-2.1c1.2-0.7,3.3-1.6,5.9-1.6s4.2,0.7,5.2,1.8c1.1,1.1,1.7,2.4,1.7,5.1L105.2,276
			L105.2,276z M102.1,268.4l-3.7,0.2c-2.6,0.1-3.6,1.2-3.6,2.7s1.2,2.7,3.3,2.7c2.1,0,3.4-1.4,4-2.3L102.1,268.4L102.1,268.4z"/>
		<path class="st0" d="M121.2,276h-13.8v-2l9.2-11.2h-8.8v-2.6h12.8v1.9l-9.2,11.2h9.7L121.2,276L121.2,276z"/>
		<path class="st0" d="M125.5,257c-1.2,0-2.1-0.8-2.1-2c0-1.1,0.9-2,2.1-2s2.1,0.8,2.1,2C127.6,256.1,126.7,257,125.5,257z
			 M127.1,276h-3.2v-15.8h3.2V276z"/>
		<path class="st0" d="M144.7,276h-3.1v-2.3c-0.9,1.5-2.7,2.6-4.9,2.6c-2.3,0-3.6-0.8-4.4-1.8c-0.8-1.1-1.2-2.6-1.2-4.9v-9.5h3.2
			v9.3c0,2.2,0.5,4.2,3.3,4.2s3.9-2.4,3.9-5.1V260h3.2V276z"/>
		<path class="st0" d="M162.5,276h-3.2v-8.8c0-2.7-0.5-4.7-3.3-4.7c-3,0-4.1,2.5-4.1,5.5v7.9h-3.2v-15.8h3.2v2.5h0.1
			c0.8-1.6,2.5-2.8,4.8-2.8c4.5,0,5.7,3,5.7,6.7V276z"/>
		<path class="st0" d="M181.5,276.3c-2.5,0-4.3-1.1-5.5-2.8l0,0v8.7h-3.2v-22h3.1v2.5h0.1c1.4-1.9,3.3-2.8,5.6-2.8
			c4.7,0,7.6,3.5,7.6,8.2S186.2,276.3,181.5,276.3z M180.9,262.5c-3.2,0-5,2.4-5,5.6s1.9,5.6,5,5.6c3.2,0,5-2.4,5-5.6
			S184,262.5,180.9,262.5z"/>
		<path class="st0" d="M206.5,268.8h-12.2c0.2,3.1,2.2,5,5.1,5c3,0,4.9-1.6,5.2-1.8l1.3,1.8c-0.2,0.2-2.2,2.5-6.9,2.5
			s-7.9-3.3-7.9-8.3s3.6-8.2,8-8.2s7.5,3.1,7.5,7.5C206.6,268,206.5,268.8,206.5,268.8z M203.5,266.7c0-1.8-1.4-4.5-4.6-4.5
			c-3.2,0-4.6,2.6-4.7,4.5H203.5z"/>
		<path class="st0" d="M218,263.1L218,263.1c-0.4-0.1-1-0.3-1.8-0.3c-1.4,0-2.3,0.9-2.6,1.3s-1,1.7-1,4v7.9h-3.2v-15.8h3.2v2.4h0.1
			c0.8-1.8,2.2-2.7,3.9-2.7c1.1,0,1.7,0.3,1.7,0.3L218,263.1z"/>
		<path class="st0" d="M229.8,276h-3.2v-23h3.2V276z"/>
		<path class="st0" d="M246.3,276h-3.1v-2c-0.6,0.7-2.1,2.4-5,2.4s-5.5-1.8-5.5-4.9s2.5-4.7,6.2-4.8l4.2-0.2v-0.6
			c0-2.4-1.6-3.6-3.9-3.6c-2.3,0-4.2,1-4.8,1.4l-1-2.1c1.2-0.7,3.3-1.6,5.9-1.6s4.2,0.7,5.2,1.8c1.1,1.1,1.7,2.4,1.7,5.1L246.3,276
			L246.3,276z M243.1,268.4l-3.7,0.2c-2.6,0.1-3.6,1.2-3.6,2.7s1.2,2.7,3.3,2.7s3.4-1.4,4-2.3V268.4z"/>
		<path class="st0" d="M265.1,276.3c-2.5,0-4.3-1.1-5.5-2.8l0,0v8.7h-3.2v-22h3.1v2.5h0.1c1.4-1.9,3.3-2.8,5.6-2.8
			c4.7,0,7.6,3.5,7.6,8.2S269.8,276.3,265.1,276.3z M264.5,262.5c-3.2,0-5,2.4-5,5.6s1.9,5.6,5,5.6c3.2,0,5-2.4,5-5.6
			S267.6,262.5,264.5,262.5z"/>
		<path class="st0" d="M279.1,276h-3.2v-23h3.2V276z"/>
		<path class="st0" d="M295.5,276h-3.1v-2c-0.6,0.7-2.1,2.4-5,2.4s-5.5-1.8-5.5-4.9s2.5-4.7,6.2-4.8l4.2-0.2v-0.6
			c0-2.4-1.6-3.6-3.9-3.6c-2.3,0-4.2,1-4.8,1.4l-1-2.1c1.2-0.7,3.3-1.6,5.9-1.6s4.2,0.7,5.2,1.8c1.1,1.1,1.7,2.4,1.7,5.1L295.5,276
			L295.5,276z M292.4,268.4l-3.7,0.2c-2.6,0.1-3.6,1.2-3.6,2.7s1.2,2.7,3.3,2.7s3.4-1.4,4-2.3V268.4z"/>
		<path class="st0" d="M313,276h-3.2v-8.8c0-2.7-0.5-4.7-3.3-4.7c-3,0-4.1,2.5-4.1,5.5v7.9h-3.1v-15.8h3.2v2.5h0.1
			c0.8-1.6,2.5-2.8,4.8-2.8c4.5,0,5.7,3,5.7,6.7L313,276L313,276z"/>
		<path class="st0" d="M318.7,257c-1.2,0-2.1-0.8-2.1-2c0-1.1,0.9-2,2.1-2c1.2,0,2.1,0.8,2.1,2C320.7,256.1,319.9,257,318.7,257z
			 M320.3,276h-3.2v-15.8h3.2V276z"/>
		<path class="st0" d="M333.4,274.9c-1.1,0.9-2.6,1.4-4.4,1.4c-2.7,0-4.8-1.1-6.1-2.8l1.5-1.9c1.2,1.5,3.2,2.3,4.7,2.3s3-0.5,3-2.3
			s-2.5-2.3-3.6-2.6c-1.1-0.4-1.4-0.4-2.2-0.8c-1-0.5-2.5-1.5-2.5-3.8c0-2.9,2.5-4.5,5.3-4.5s4.4,1,5.4,2.1l-1.3,2
			c-0.9-1-2.5-1.7-4-1.7s-2.5,0.7-2.5,2s1.5,1.9,3.1,2.4c0.9,0.3,1.5,0.5,2.1,0.8s1.4,0.7,1.8,1.1c0.6,0.6,1.3,1.5,1.3,2.9
			C335.1,272.9,334.5,274.1,333.4,274.9z"/>
		<path class="st0" d="M350.1,276H347v-2c-0.6,0.7-2.1,2.4-5,2.4s-5.5-1.8-5.5-4.9s2.5-4.7,6.2-4.8l4.2-0.2v-0.6
			c0-2.4-1.6-3.6-3.9-3.6s-4.2,1-4.8,1.4l-1-2.1c1.2-0.7,3.3-1.6,5.9-1.6s4.2,0.7,5.2,1.8c1.1,1.1,1.7,2.4,1.7,5.1L350.1,276
			L350.1,276z M347,268.4l-3.7,0.2c-2.6,0.1-3.6,1.2-3.6,2.7s1.2,2.7,3.3,2.7s3.4-1.4,4-2.3V268.4z"/>
		<path class="st0" d="M366.1,276h-13.8v-2l9.2-11.2h-8.8v-2.6h12.8v1.9l-9.2,11.2h9.7L366.1,276L366.1,276z"/>
		<path class="st0" d="M370.4,257c-1.2,0-2.1-0.8-2.1-2c0-1.1,0.9-2,2.1-2c1.2,0,2.1,0.8,2.1,2C372.5,256.1,371.6,257,370.4,257z
			 M372,276h-3.2v-15.8h3.2V276z"/>
		<path class="st0" d="M389.6,276h-3.1v-2.3c-0.9,1.5-2.7,2.6-4.9,2.6c-2.3,0-3.6-0.8-4.4-1.8c-0.8-1.1-1.2-2.6-1.2-4.9v-9.5h3.2
			v9.3c0,2.2,0.5,4.2,3.3,4.2s3.9-2.4,3.9-5.1V260h3.2V276z"/>
		<path class="st0" d="M407.4,276h-3.2v-8.8c0-2.7-0.5-4.7-3.3-4.7c-3,0-4.1,2.5-4.1,5.5v7.9h-3.2v-15.8h3.2v2.5h0.1
			c0.8-1.6,2.5-2.8,4.8-2.8c4.5,0,5.7,3,5.7,6.7V276z"/>
		<path class="st0" d="M432.9,276h-3.1v-2.5h-0.1c-1.3,1.9-3.3,2.9-5.6,2.9c-4.7,0-7.7-3.6-7.7-8.3c0-4.7,3-8.2,7.6-8.2
			c2.6,0,4.4,1.1,5.5,2.8h0.1V253h3.2L432.9,276L432.9,276z M424.8,262.5c-3.2,0-5,2.4-5,5.6s1.9,5.6,5,5.6c3.2,0,5-2.4,5-5.6
			S427.9,262.5,424.8,262.5z"/>
		<path class="st0" d="M449.3,276h-3v-2c-0.6,0.7-2.1,2.4-5,2.4s-5.5-1.8-5.5-4.9s2.5-4.7,6.2-4.8l4.2-0.2v-0.6
			c0-2.4-1.6-3.6-3.9-3.6s-4.2,1-4.8,1.4l-1-2.1c1.2-0.7,3.3-1.6,5.9-1.6c2.6,0,4.2,0.7,5.2,1.8c1.1,1.1,1.7,2.4,1.7,5.1L449.3,276
			L449.3,276z M446.2,268.4l-3.7,0.2c-2.6,0.1-3.6,1.2-3.6,2.7s1.2,2.7,3.3,2.7s3.4-1.4,4-2.3V268.4z"/>
		<path class="st0" d="M456.4,276h-3.2v-23h3.2V276z"/>
		<path class="st0" d="M474.6,275.8c0,0-1.2,0.5-2.9,0.5s-2.7-0.6-3.4-1.6s-0.8-2.2-0.8-4.7v-7.2h-2.3v-2.6h2.3v-4.7h3.2v4.7h3.8
			v2.6h-3.8v7.1c0,1.3,0,2.2,0.4,2.9c0.3,0.5,0.7,0.8,1.6,0.8c0.9,0,1.6-0.4,1.6-0.4L474.6,275.8z"/>
		<path class="st0" d="M490.9,268.8h-12.2c0.2,3.1,2.2,5,5.1,5c3,0,4.9-1.6,5.2-1.8l1.3,1.8c-0.2,0.2-2.2,2.5-6.9,2.5
			s-7.9-3.3-7.9-8.3s3.6-8.2,8-8.2s7.5,3.1,7.5,7.5C491,268,490.9,268.8,490.9,268.8z M488,266.7c0-1.8-1.4-4.5-4.6-4.5
			c-3.2,0-4.6,2.6-4.7,4.5H488z"/>
		<path class="st0" d="M502.4,263.1L502.4,263.1c-0.4-0.1-1-0.3-1.8-0.3c-1.4,0-2.3,0.9-2.6,1.3s-1,1.7-1,4v7.9h-3.2v-15.8h3.2v2.4
			h0.1c0.8-1.8,2.2-2.7,3.9-2.7c1.1,0,1.7,0.3,1.7,0.3L502.4,263.1z"/>
		<path class="st0" d="M513.2,263.1L513.2,263.1c-0.4-0.1-1-0.3-1.8-0.3c-1.4,0-2.3,0.9-2.6,1.3s-1,1.7-1,4v7.9h-3.2v-15.8h3.2v2.4
			h0.1c0.8-1.8,2.2-2.7,3.9-2.7c1.1,0,1.7,0.3,1.7,0.3L513.2,263.1z"/>
		<path class="st0" d="M517.1,257c-1.2,0-2.1-0.8-2.1-2c0-1.1,0.9-2,2.1-2c1.2,0,2.1,0.8,2.1,2C519.2,256.1,518.3,257,517.1,257z
			 M518.7,276h-3.2v-15.8h3.2V276z"/>
		<path class="st0" d="M530.6,275.8c0,0-1.2,0.5-2.9,0.5s-2.7-0.6-3.4-1.6s-0.8-2.2-0.8-4.7v-7.2h-2.3v-2.6h2.3v-4.7h3.2v4.7h3.8
			v2.6h-3.8v7.1c0,1.3,0,2.2,0.4,2.9c0.3,0.5,0.7,0.8,1.6,0.8c0.9,0,1.6-0.4,1.6-0.4L530.6,275.8z"/>
		<path class="st0" d="M539.9,276.3c-4.7,0-8.4-3.3-8.4-8.2c0-4.9,3.7-8.2,8.4-8.2s8.3,3.4,8.3,8.2
			C548.2,273,544.6,276.3,539.9,276.3z M539.9,262.5c-3.2,0-5.2,2.5-5.2,5.6s2,5.6,5.2,5.6s5.1-2.5,5.1-5.6
			C545,264.9,543,262.5,539.9,262.5z"/>
		<path class="st0" d="M559.8,263.1L559.8,263.1c-0.4-0.1-1-0.3-1.8-0.3c-1.4,0-2.3,0.9-2.6,1.3s-1,1.7-1,4v7.9h-3.2v-15.8h3.2v2.4
			h0.1c0.8-1.8,2.2-2.7,3.9-2.7c1.1,0,1.7,0.3,1.7,0.3L559.8,263.1z"/>
		<path class="st0" d="M563.7,257c-1.2,0-2.1-0.8-2.1-2c0-1.1,0.9-2,2.1-2c1.2,0,2.1,0.8,2.1,2C565.8,256.1,564.9,257,563.7,257z
			 M565.3,276h-3.2v-15.8h3.2V276z"/>
	</g>
</g>
</svg>
