<?xml version="1.0" encoding="UTF-8"?>
<svg id="Ebene_1" data-name="Ebene 1" xmlns="http://www.w3.org/2000/svg" width="282.22mm" height="282.22mm" viewBox="0 0 800 800">
  <defs>
    <style>
      .cls-1 {
        fill: #858584;
      }

      .cls-2 {
        fill: #1d1d1b;
      }
    </style>
  </defs>
  <polygon class="cls-1" points="507.2 196.8 484.8 219.2 416 150.4 416 370.74 384 338.74 384 150.4 315.2 219.2 292.8 196.8 400 89.6 507.2 196.8"/>
  <polygon class="cls-1" points="384 429.26 402.74 448 384 448 384 429.26"/>
  <polygon class="cls-1" points="333.26 288 301.26 256 352 256 352 288 333.26 288"/>
  <path class="cls-1" d="M608,304v258.74l-32-32v-226.74c0-9.6-6.4-16-16-16h-112v-32h112c27.2,0,48,20.8,48,48Z"/>
  <path class="cls-1" d="M562.57,607.83l24.32,24.32c-7.59,4.99-16.8,7.85-26.89,7.85H240c-27.2,0-48-20.8-48-48v-288c0-18.59,9.71-34.18,24.54-42.2l26.2,26.2h-2.74c-9.6,0-16,6.4-16,16v288c0,9.6,6.4,16,16,16h320c.89,0,1.74-.05,2.57-.17Z"/>
  <polygon class="cls-2" points="718.92 696.3 696.3 718.92 598.55 621.17 575.13 597.75 81.08 103.7 103.7 81.08 718.92 696.3"/>
  <polygon class="cls-1" points="416 461.1 416 528.74 384 528.74 384 448 402.9 448 416 461.1"/>
</svg>